<svg height="512" viewBox="0 0 256 256" width="512" xmlns="http://www.w3.org/2000/svg"><g fill="#846f75"><path d="m131.922 153.329a4.6 4.6 0 0 0 -7.844 0l-19.664 32.044a4.6 4.6 0 0 0 4.811 6.922l9.707-1.912v22.288a4.608 4.608 0 0 0 4.6 4.6h8.932a4.607 4.607 0 0 0 4.6-4.6v-22.289l9.707 1.913a4.6 4.6 0 0 0 4.812-6.922zm3.13 31.56a2.5 2.5 0 0 0 -2.984 2.453v24.931h-8.136v-24.931a2.5 2.5 0 0 0 -2.984-2.452l-11.8 2.324 18.852-30.714 18.85 30.717z"/><path d="m125.5 123.117v16.183a2.5 2.5 0 0 0 5 0v-16.183a2.5 2.5 0 0 0 -5 0z"/><path d="m165.421 158.038h-16.182a2.5 2.5 0 0 0 0 5h16.182a2.5 2.5 0 0 0 0-5z"/><path d="m109.261 160.538a2.5 2.5 0 0 0 -2.5-2.5h-16.182a2.5 2.5 0 0 0 0 5h16.182a2.5 2.5 0 0 0 2.5-2.5z"/><path d="m152.693 132.309-11.443 11.443a2.5 2.5 0 1 0 3.536 3.535l11.442-11.443a2.5 2.5 0 0 0 -3.535-3.535z"/><path d="m99.772 132.309a2.5 2.5 0 0 0 0 3.535l11.442 11.443a2.5 2.5 0 0 0 3.536-3.535l-11.443-11.443a2.5 2.5 0 0 0 -3.535 0z"/><path d="m128 113.323a37.3 37.3 0 1 0 -37.3-37.3 37.34 37.34 0 0 0 37.3 37.3zm0-69.6a32.3 32.3 0 1 1 -32.3 32.3 32.334 32.334 0 0 1 32.3-32.296z"/><path d="m237.5 104.467a37.286 37.286 0 1 0 -13.652 50.951 37.341 37.341 0 0 0 13.652-50.951zm-16.152 46.621a32.3 32.3 0 1 1 11.822-44.121 32.337 32.337 0 0 1 -11.825 44.121z"/><path d="m86.832 112.565a37.291 37.291 0 1 0 -3.727 28.3 37.057 37.057 0 0 0 3.727-28.3zm-8.057 25.8a32.3 32.3 0 1 1 3.225-24.506 32.087 32.087 0 0 1 -3.225 24.509z"/></g><path d="m50.8 135.943a2.5 2.5 0 0 1 -2.5-2.5v-21a2.5 2.5 0 0 1 5 0v21a2.5 2.5 0 0 1 -2.5 2.5z" fill="#f9b087"/><path d="m121.585 89.022a2.5 2.5 0 0 1 -2.5-2.5v-21a2.5 2.5 0 0 1 5 0v21a2.5 2.5 0 0 1 -2.5 2.5z" fill="#f9b087"/><path d="m134.415 89.022a2.5 2.5 0 0 1 -2.5-2.5v-21a2.5 2.5 0 0 1 5 0v21a2.5 2.5 0 0 1 -2.5 2.5z" fill="#f9b087"/><path d="m192.366 136.114a2.5 2.5 0 0 1 -2.5-2.5v-21a2.5 2.5 0 0 1 5 0v21a2.5 2.5 0 0 1 -2.5 2.5z" fill="#f9b087"/><path d="m205.2 136.114a2.5 2.5 0 0 1 -2.5-2.5v-21a2.5 2.5 0 0 1 5 0v21a2.5 2.5 0 0 1 -2.5 2.5z" fill="#f9b087"/><path d="m218.025 136.114a2.5 2.5 0 0 1 -2.5-2.5v-21a2.5 2.5 0 0 1 5 0v21a2.5 2.5 0 0 1 -2.5 2.5z" fill="#f9b087"/></svg>