<svg width="1920" height="1052" viewBox="0 0 1920 1052" fill="none" xmlns="http://www.w3.org/2000/svg">
<path d="M208.837 122.571C222.461 86.2203 270.303 78.2993 294.535 108.382L451.549 303.308C475.562 333.118 458.349 377.971 420.491 384.239L175.202 424.85C137.344 431.118 107.063 394.129 120.563 358.108L208.837 122.571Z" fill="#349EFF"/>
<path d="M208.837 122.571C222.461 86.2203 270.303 78.2993 294.535 108.382L451.549 303.308C475.562 333.118 458.349 377.971 420.491 384.239L175.202 424.85C137.344 431.118 107.063 394.129 120.563 358.108L208.837 122.571Z" fill="url(#paint0_linear)" fill-opacity="0.66"/>
<path d="M1655.28 270.272C1663.54 267.943 1672.43 270.038 1678.83 275.819L1847.67 428.452C1854.44 434.567 1857.37 443.868 1855.34 452.736L1806.59 665.058C1804.55 673.925 1797.86 680.959 1789.13 683.423L1571.12 744.919C1562.86 747.248 1553.97 745.153 1547.57 739.373L1378.73 586.74C1371.96 580.624 1369.03 571.324 1371.06 562.456L1419.81 350.134C1421.85 341.266 1428.53 334.232 1437.27 331.768L1655.28 270.272Z" fill="#349EFF"/>
<path d="M1655.28 270.272C1663.54 267.943 1672.43 270.038 1678.83 275.819L1847.67 428.452C1854.44 434.567 1857.37 443.868 1855.34 452.736L1806.59 665.058C1804.55 673.925 1797.86 680.959 1789.13 683.423L1571.12 744.919C1562.86 747.248 1553.97 745.153 1547.57 739.373L1378.73 586.74C1371.96 580.624 1369.03 571.324 1371.06 562.456L1419.81 350.134C1421.85 341.266 1428.53 334.232 1437.27 331.768L1655.28 270.272Z" fill="url(#paint1_linear)" fill-opacity="0.66"/>
<ellipse cx="630.842" cy="920" rx="130.315" ry="132" fill="#349EFF"/>
<ellipse cx="630.842" cy="920" rx="130.315" ry="132" fill="url(#paint2_linear)" fill-opacity="0.66"/>
<defs>
<linearGradient id="paint0_linear" x1="239.678" y1="40.28" x2="320.015" y2="525.506" gradientUnits="userSpaceOnUse">
<stop stop-color="white"/>
<stop offset="1" stop-color="white" stop-opacity="0"/>
</linearGradient>
<linearGradient id="paint1_linear" x1="1668.55" y1="266.53" x2="1555.12" y2="748.019" gradientUnits="userSpaceOnUse">
<stop stop-color="white"/>
<stop offset="0.9999" stop-color="white" stop-opacity="0.330894"/>
<stop offset="1" stop-color="white" stop-opacity="0"/>
</linearGradient>
<linearGradient id="paint2_linear" x1="630.842" y1="788" x2="630.842" y2="1052" gradientUnits="userSpaceOnUse">
<stop stop-color="white"/>
<stop offset="1" stop-color="white" stop-opacity="0"/>
</linearGradient>
</defs>
</svg>
