<svg width="71" height="112" viewBox="0 0 71 112" fill="none" xmlns="http://www.w3.org/2000/svg">
<path d="M0 32H71V81H0V32Z" fill="white"/>
<path d="M71 31.5C71 48.897 55.1061 63 35.5 63C15.8939 63 0 48.897 0 31.5C0 14.103 15.8939 0 35.5 0C55.1061 0 71 14.103 71 31.5Z" fill="white"/>
<path d="M71 80.5C71 97.897 55.1061 112 35.5 112C15.8939 112 0 97.897 0 80.5C0 63.103 15.8939 49 35.5 49C55.1061 49 71 63.103 71 80.5Z" fill="white"/>
<path d="M6.33929 36.2857H64.6607V76.5357H6.33929V36.2857Z" fill="#FFD159"/>
<path d="M64.6607 35.875C64.6607 50.1654 51.605 61.75 35.5 61.75C19.395 61.75 6.33929 50.1654 6.33929 35.875C6.33929 21.5846 19.395 10 35.5 10C51.605 10 64.6607 21.5846 64.6607 35.875Z" fill="#FFD159"/>
<path d="M64.6607 76.125C64.6607 90.4154 51.605 102 35.5 102C19.395 102 6.33929 90.4154 6.33929 76.125C6.33929 61.8346 19.395 50.25 35.5 50.25C51.605 50.25 64.6607 61.8346 64.6607 76.125Z" fill="#FFD159"/>
<circle cx="35" cy="33" r="5" fill="white"/>
</svg>
